<?xml version="1.0" encoding="UTF-8"?>
<svg xmlns="http://www.w3.org/2000/svg" version="1.1" viewBox="0 0 48.78 48.78">
  <defs>
    <style>
      .cls-1 {
        fill: #52bc82;
      }
    </style>
  </defs>
  <!-- Generator: Adobe Illustrator 28.7.2, SVG Export Plug-In . SVG Version: 1.2.0 Build 154)  -->
  <g>
    <g id="Layer_1">
      <path class="cls-1" d="M1.07,24.32c0,2.79,1.35,5.36,3.56,6.95-.41.97-.62,2.02-.62,3.1,0,4.13,3.13,7.55,7.14,7.99.76,3.59,3.96,6.3,7.78,6.3,2.08,0,3.97-.57,5.46-1.64,1.49,1.06,3.37,1.64,5.46,1.64,3.82,0,7.02-2.71,7.78-6.3,4.01-.45,7.14-3.86,7.14-7.99,0-1.08-.21-2.13-.62-3.1,2.21-1.59,3.56-4.16,3.56-6.95,0-2.97-1.54-5.69-3.99-7.23.37-.94.57-1.94.57-2.98,0-4.22-3.27-7.7-7.42-8.02C35.96,2.63,32.81.11,29.1.11c-1.7,0-3.35.54-4.71,1.52-1.36-.98-3.01-1.52-4.71-1.52-3.71,0-6.86,2.52-7.78,5.98-4.14.32-7.42,3.8-7.42,8.02,0,1.03.19,2.04.57,2.98-2.44,1.55-3.99,4.26-3.99,7.23ZM25.58,27.27c.36.01.77.02,1.19.02.61,0,1.26-.02,1.83-.07.2.76.48,1.46.86,1.99.23.32.6.49.97.49.24,0,.49-.07.7-.23.53-.39.65-1.13.26-1.67-.7-.96-.9-3.5-.58-4.28.24-.61-.05-1.3-.66-1.55-.61-.24-1.3.05-1.55.66-.22.55-.32,1.35-.31,2.21-.75.05-1.78.05-2.71.03V4.35c.95-.88,2.21-1.37,3.52-1.37,2.4,0,4.44,1.64,5.02,3.88-1.41.41-2.69,1.23-3.66,2.39-.42.5-.36,1.25.14,1.68.22.19.5.28.77.28.34,0,.68-.14.91-.42.85-1.01,2.04-1.64,3.32-1.8h0c.11-.01.22-.02.33-.03h0c.11,0,.21-.01.31-.01,2.86,0,5.18,2.33,5.18,5.18,0,.81-.19,1.6-.55,2.32-.56-.12-1.14-.19-1.74-.19-1.25,0-2.46.29-3.56.83-.74-.66-1.6-1.2-2.57-1.56-.62-.23-1.3.08-1.53.7-.23.62.08,1.3.7,1.54,1.97.74,3.4,2.56,3.65,4.65.07.61.59,1.05,1.18,1.05.05,0,.09,0,.14,0,.65-.08,1.12-.67,1.04-1.33-.13-1.12-.5-2.18-1.04-3.12.63-.24,1.31-.36,2-.36s1.31.12,1.91.33c.12.04.24.09.36.14.03.01.06.03.09.04.1.04.19.09.29.14.04.02.08.04.11.06.09.05.17.1.25.15.04.03.09.06.13.09.08.06.17.11.25.17.05.04.09.07.14.11.05.04.11.09.16.13.04.04.09.07.13.11.08.07.15.14.23.22.04.04.07.08.11.11.06.06.12.13.17.19.03.03.05.06.08.09.07.09.14.18.21.27.02.03.04.06.06.08.07.1.14.21.21.32,0,0,0,.01,0,.02.07.11.13.23.19.35,0,.01.01.02.02.04.06.12.12.25.17.38,0,0,0,0,0,0,.05.13.1.27.15.4h0c.04.13.08.27.11.41,0,.01,0,.02,0,.04.03.13.06.27.08.41h0c.02.13.04.27.05.4,0,.03,0,.06,0,.08.01.13.02.27.02.4,0,2.27-1.35,4.32-3.43,5.23l-1.36.59.87,1.2c.64.89.98,1.94.98,3.03,0,2.69-2.06,4.91-4.69,5.16-.29-1.78-1.21-3.4-2.59-4.55.56-.84.96-1.79,1.14-2.81.12-.65-.32-1.27-.96-1.38-.65-.11-1.27.32-1.38.96-.36,2.02-1.95,3.66-3.96,4.08-.64.13-1.06.77-.92,1.41.12.56.61.95,1.17.95.08,0,.16,0,.24-.03,1.14-.24,2.18-.74,3.07-1.44,1.2.96,1.92,2.42,1.92,3.98h0c0,2.81-2.29,5.09-5.09,5.09-1.72,0-3.21-.52-4.26-1.49v-17.05h0ZM3.95,23.92s0-.06,0-.08c.01-.14.03-.27.05-.4h0c.02-.14.05-.28.08-.41,0-.01,0-.02,0-.04.03-.14.07-.27.11-.41h0c.04-.14.09-.27.15-.4,0,0,0,0,0-.01.05-.13.11-.25.17-.38,0-.01.01-.02.02-.04.06-.12.12-.23.19-.35,0,0,0-.01,0-.02.07-.11.13-.21.21-.32.02-.03.04-.06.06-.08.07-.09.13-.18.21-.27.03-.03.05-.06.08-.09.06-.07.11-.13.17-.19.04-.04.07-.08.11-.11.07-.07.15-.15.23-.22.04-.04.09-.07.13-.11.05-.04.1-.09.16-.13.05-.04.09-.07.14-.11.08-.06.16-.12.25-.17.04-.03.09-.06.13-.09.08-.05.17-.1.25-.15.04-.02.08-.04.11-.06.09-.05.19-.1.29-.14.03-.01.06-.03.09-.04.12-.05.24-.1.36-.14.6-.21,1.24-.33,1.91-.33,1.81,0,3.36.84,4.39,2.35-1.03.58-1.93,1.39-2.64,2.4-.38.54-.24,1.28.3,1.66.21.15.45.21.68.21.38,0,.75-.18.98-.51,1.2-1.72,3.32-2.66,5.4-2.38.65.09,1.25-.37,1.34-1.03.09-.65-.37-1.25-1.03-1.34-.94-.12-1.87-.08-2.76.11-1.45-2.43-3.87-3.86-6.66-3.86-.6,0-1.18.07-1.74.19-.36-.71-.55-1.5-.55-2.32,0-2.86,2.33-5.18,5.18-5.18.21,0,.42.01.64.04l1.26.16.07-1.27c.16-2.74,2.43-4.88,5.17-4.88,1.3,0,2.56.5,3.52,1.37v8c-.61.37-1.54.51-2.51.33-1.37-.25-2.45-1.03-2.9-2.07-.26-.6-.96-.88-1.57-.62-.6.26-.88.96-.62,1.57.77,1.77,2.51,3.06,4.65,3.46.44.08.88.12,1.31.12.57,0,1.12-.08,1.63-.22v29.4c-1.05.96-2.55,1.49-4.26,1.49-2.8,0-5.08-2.28-5.09-5.08,0,0,0,0,0-.01,0-1.32.5-2.47,1.44-3.32.94-.84,2.23-1.3,3.65-1.3.66,0,1.19-.53,1.19-1.19s-.53-1.19-1.19-1.19c-.7,0-1.39.09-2.04.25.13-1.36-.1-2.75-.7-4-.29-.59-1-.84-1.59-.55-.59.29-.84,1-.55,1.59.65,1.34.67,2.91.08,4.27-.15.11-.29.22-.42.35-1.15,1.03-1.89,2.39-2.14,3.91-2.63-.25-4.69-2.47-4.69-5.16,0-1.1.34-2.14.98-3.03l.87-1.2-1.36-.59c-2.08-.91-3.43-2.96-3.43-5.23,0-.14,0-.27.02-.41Z"/>
    </g>
  </g>
</svg>