<?xml version="1.0" encoding="UTF-8"?>
<svg xmlns="http://www.w3.org/2000/svg" version="1.1" viewBox="0 0 139.15 48.78">
  <defs>
    <style>
      .cls-1 {
        fill: #ffffff;
      }

      .cls-2 {
        fill: #52bc82;
      }
    </style>
  </defs>
  <!-- Generator: Adobe Illustrator 28.7.2, SVG Export Plug-In . SVG Version: 1.2.0 Build 154)  -->
  <g>
    <g id="Layer_1">
      <g>
        <g>
          <path class="cls-1" d="M46.44,32.79V15.34h3.16v14.8h7.69v2.65h-10.85Z"/>
          <path class="cls-1" d="M64.73,33.05c-1.31,0-2.45-.27-3.4-.82-.95-.55-1.68-1.33-2.19-2.33-.51-1.01-.77-2.2-.77-3.57s.26-2.53.77-3.55c.51-1.02,1.23-1.82,2.16-2.39.93-.57,2.01-.86,3.26-.86.81,0,1.57.13,2.29.39.72.26,1.36.66,1.91,1.2.55.54.99,1.23,1.31,2.06.32.83.48,1.82.48,2.97v.95h-10.73v-2.08h7.77c0-.59-.13-1.12-.38-1.58-.25-.46-.6-.83-1.04-1.1-.45-.27-.96-.4-1.55-.4-.63,0-1.18.15-1.66.46-.48.3-.85.7-1.11,1.19-.26.49-.4,1.03-.41,1.62v1.82c0,.76.14,1.41.42,1.96.28.54.67.96,1.17,1.24s1.08.43,1.75.43c.45,0,.86-.06,1.22-.19.36-.13.68-.32.95-.57.27-.25.47-.56.61-.93l2.88.32c-.18.76-.53,1.42-1.04,1.99s-1.16,1-1.95,1.31-1.69.46-2.71.46Z"/>
          <path class="cls-1" d="M82.93,19.7l-4.66,13.09h-3.41l-4.66-13.09h3.29l3.01,9.72h.14l3.02-9.72h3.28Z"/>
          <path class="cls-1" d="M88.94,33.05c-1.31,0-2.45-.27-3.4-.82-.95-.55-1.68-1.33-2.19-2.33-.51-1.01-.77-2.2-.77-3.57s.26-2.53.77-3.55c.51-1.02,1.23-1.82,2.16-2.39.93-.57,2.01-.86,3.26-.86.81,0,1.57.13,2.29.39.72.26,1.36.66,1.91,1.2.55.54.99,1.23,1.31,2.06.32.83.48,1.82.48,2.97v.95h-10.73v-2.08h7.77c0-.59-.13-1.12-.38-1.58-.25-.46-.6-.83-1.04-1.1-.45-.27-.96-.4-1.55-.4-.63,0-1.18.15-1.66.46-.48.3-.85.7-1.11,1.19-.26.49-.4,1.03-.41,1.62v1.82c0,.76.14,1.41.42,1.96.28.54.67.96,1.17,1.24s1.08.43,1.75.43c.45,0,.86-.06,1.22-.19.36-.13.68-.32.95-.57.27-.25.47-.56.61-.93l2.88.32c-.18.76-.53,1.42-1.04,1.99s-1.16,1-1.95,1.31-1.69.46-2.71.46Z"/>
          <path class="cls-1" d="M99.01,15.34v17.46h-3.09V15.34h3.09Z"/>
          <path class="cls-1" d="M112.84,15.34h3.16v11.4c0,1.25-.29,2.35-.88,3.3-.59.95-1.41,1.69-2.48,2.22s-2.3.8-3.72.8-2.67-.27-3.73-.8-1.89-1.27-2.47-2.22c-.59-.95-.88-2.05-.88-3.3v-11.4h3.16v11.14c0,.73.16,1.38.48,1.94.32.57.77,1.01,1.36,1.33.58.32,1.28.48,2.08.48s1.5-.16,2.08-.48c.59-.32,1.04-.76,1.36-1.33s.48-1.22.48-1.94v-11.14Z"/>
          <path class="cls-1" d="M117.87,37.7v-18h3.03v2.16h.18c.16-.32.38-.66.67-1.02.29-.36.68-.67,1.18-.93.49-.26,1.12-.39,1.89-.39,1.01,0,1.92.26,2.74.77.81.51,1.46,1.27,1.94,2.28.48,1,.72,2.23.72,3.69s-.24,2.66-.71,3.66c-.47,1.01-1.11,1.77-1.93,2.3s-1.73.79-2.76.79c-.75,0-1.37-.12-1.87-.38s-.89-.55-1.19-.91c-.3-.36-.53-.69-.7-1.01h-.13v6.97h-3.09ZM120.89,26.25c0,.85.12,1.59.36,2.22.24.64.59,1.13,1.05,1.49.46.36,1.01.53,1.67.53s1.25-.18,1.71-.55c.46-.37.81-.87,1.04-1.51.24-.64.35-1.37.35-2.19s-.12-1.53-.35-2.17c-.23-.63-.58-1.12-1.04-1.48s-1.03-.54-1.72-.54-1.22.17-1.68.52c-.46.35-.81.83-1.04,1.46-.24.62-.35,1.36-.35,2.21Z"/>
        </g>
        <path class="cls-2" d="M7.95,23.95c0,1.79.87,3.44,2.28,4.46-.26.63-.4,1.3-.4,1.99,0,2.65,2.01,4.84,4.59,5.13.49,2.31,2.54,4.04,4.99,4.04,1.34,0,2.55-.37,3.5-1.05.96.68,2.17,1.05,3.5,1.05,2.45,0,4.5-1.74,4.99-4.04,2.58-.29,4.59-2.48,4.59-5.13,0-.69-.14-1.36-.4-1.99,1.42-1.02,2.28-2.67,2.28-4.46,0-1.91-.99-3.65-2.56-4.64.24-.6.36-1.25.36-1.91,0-2.71-2.1-4.94-4.76-5.15-.59-2.22-2.61-3.84-4.99-3.84-1.09,0-2.15.35-3.02.98-.87-.63-1.93-.98-3.02-.98-2.38,0-4.4,1.62-4.99,3.84-2.66.21-4.76,2.44-4.76,5.15,0,.66.12,1.31.36,1.91-1.57.99-2.56,2.74-2.56,4.64ZM23.68,25.84c.23,0,.49.01.76.01.39,0,.81-.01,1.17-.04.13.49.31.94.55,1.28.15.21.38.32.62.32.16,0,.31-.05.45-.15.34-.25.42-.73.17-1.07-.45-.62-.58-2.25-.38-2.74.16-.39-.03-.84-.43-.99-.39-.16-.84.03-.99.43-.14.35-.21.86-.2,1.42-.48.03-1.14.03-1.74.02v-13.18c.61-.56,1.42-.88,2.26-.88,1.54,0,2.85,1.05,3.22,2.49-.91.27-1.72.79-2.35,1.53-.27.32-.23.81.09,1.08.14.12.32.18.49.18.22,0,.43-.09.59-.27.55-.65,1.31-1.06,2.13-1.16h0c.07,0,.14-.02.21-.02h0c.07,0,.13,0,.2,0,1.83,0,3.33,1.49,3.33,3.33,0,.52-.12,1.03-.35,1.49-.36-.08-.73-.12-1.12-.12-.8,0-1.58.18-2.29.53-.47-.43-1.03-.77-1.65-1-.4-.15-.84.05-.99.45-.15.4.05.84.45.99,1.26.47,2.18,1.65,2.34,2.98.05.39.38.67.76.67.03,0,.06,0,.09,0,.42-.05.72-.43.67-.85-.09-.72-.32-1.4-.67-2,.41-.15.84-.23,1.28-.23s.84.08,1.23.21c.08.03.16.06.23.09.02,0,.04.02.06.03.06.03.12.06.18.09.02.01.05.03.07.04.05.03.11.06.16.1.03.02.06.04.09.06.05.04.11.07.16.11.03.02.06.05.09.07.03.03.07.05.1.08.03.02.06.05.08.07.05.05.1.09.14.14.02.02.05.05.07.07.04.04.07.08.11.12.02.02.03.04.05.06.05.06.09.11.13.17.01.02.03.04.04.05.05.07.09.13.13.2,0,0,0,0,0,.01.04.07.08.15.12.22,0,0,0,.02.01.02.04.08.08.16.11.24,0,0,0,0,0,0,.03.08.07.17.09.26h0c.03.09.05.17.07.26,0,0,0,.02,0,.02.02.09.04.17.05.26h0c.01.09.02.17.03.26,0,.02,0,.04,0,.05,0,.09.01.17.01.26,0,1.46-.86,2.77-2.2,3.36l-.87.38.56.77c.41.57.63,1.24.63,1.94,0,1.73-1.32,3.15-3.01,3.31-.18-1.14-.77-2.18-1.66-2.92.36-.54.61-1.15.73-1.8.07-.42-.2-.81-.62-.89-.42-.07-.81.2-.89.62-.23,1.3-1.25,2.35-2.54,2.62-.41.09-.68.49-.59.91.08.36.39.61.75.61.05,0,.1,0,.16-.02.73-.15,1.4-.48,1.97-.92.77.61,1.23,1.55,1.23,2.55h0c0,1.8-1.47,3.27-3.27,3.27-1.1,0-2.06-.34-2.74-.95v-10.94h0ZM9.8,23.69s0-.04,0-.05c0-.09.02-.17.03-.26h0c.01-.09.03-.18.05-.26,0,0,0-.02,0-.02.02-.09.05-.18.07-.26h0c.03-.09.06-.17.09-.26,0,0,0,0,0,0,.03-.08.07-.16.11-.24,0,0,0-.02.01-.02.04-.08.08-.15.12-.22,0,0,0,0,0-.01.04-.07.09-.14.13-.2.01-.02.03-.04.04-.05.04-.06.09-.12.13-.17.02-.02.03-.04.05-.06.04-.04.07-.08.11-.12.02-.02.05-.05.07-.07.05-.05.1-.09.14-.14.03-.02.05-.05.08-.07.03-.03.07-.06.1-.08.03-.02.06-.05.09-.07.05-.04.11-.08.16-.11.03-.02.06-.04.09-.06.05-.03.11-.07.16-.1.02-.01.05-.03.07-.04.06-.03.12-.06.18-.09.02,0,.04-.02.06-.03.08-.03.15-.06.23-.09.38-.14.8-.21,1.23-.21,1.16,0,2.16.54,2.82,1.51-.66.37-1.24.89-1.69,1.54-.24.35-.16.82.19,1.06.13.09.29.14.44.14.24,0,.48-.11.63-.33.77-1.11,2.13-1.71,3.47-1.53.42.05.8-.24.86-.66.06-.42-.24-.8-.66-.86-.6-.08-1.2-.05-1.77.07-.93-1.56-2.49-2.48-4.27-2.48-.38,0-.76.04-1.12.12-.23-.46-.35-.96-.35-1.49,0-1.83,1.49-3.33,3.33-3.33.13,0,.27,0,.41.03l.81.1.05-.82c.1-1.76,1.56-3.13,3.32-3.13.84,0,1.64.32,2.26.88v5.13c-.39.24-.99.32-1.61.21-.88-.16-1.57-.66-1.86-1.33-.17-.39-.62-.57-1.01-.4-.39.17-.57.62-.4,1.01.49,1.14,1.61,1.97,2.99,2.22.28.05.57.08.84.08.37,0,.72-.05,1.05-.14v18.87c-.67.62-1.63.95-2.74.95-1.8,0-3.26-1.46-3.27-3.26,0,0,0,0,0,0,0-.85.32-1.59.93-2.13.6-.54,1.43-.83,2.34-.83.42,0,.76-.34.76-.76s-.34-.76-.76-.76c-.45,0-.89.06-1.31.16.09-.87-.06-1.77-.45-2.57-.18-.38-.64-.54-1.02-.35-.38.18-.54.64-.35,1.02.42.86.43,1.87.05,2.74-.09.07-.18.14-.27.22-.74.66-1.21,1.53-1.37,2.51-1.69-.16-3.01-1.58-3.01-3.31,0-.7.22-1.38.63-1.94l.56-.77-.87-.38c-1.34-.58-2.2-1.9-2.2-3.36,0-.09,0-.18.01-.26Z"/>
      </g>
    </g>
  </g>
</svg>